<svg xmlns="http://www.w3.org/2000/svg" id="Layer_1" viewBox="0 0 250 64.0756303"><defs><style>      .st0 {        fill: #416ca9;      }      .st1 {        fill: #201650;      }    </style></defs><path class="st0" d="M199.4758414,54.0121864c.0462252-.2987405.0777365-.5660738.1407591-.833299.2352931-1.163655.5493645-2.280043.9894972-3.3807795.518895-1.2892835,1.193279-2.5001053,1.9632227-3.6636561,1.1628255-1.7453763,2.5756419-3.270586,4.1460149-4.6543033,1.4926526-1.3051474,3.1260482-2.4215354,4.852936-3.3806753.7699598-.4245774,1.5399196-.8491588,2.3088215-1.2579806.1260613-.0629225.2510648-.1414924.3771101-.1728996.1575566-.0471628.2352931-.1415966.2668044-.2988447.1102896-.6603994.2668044-1.3364503.3298271-1.9969539.1103057-1.0534655.0630387-2.0912816-.1092318-3.1290976-.0315113-.2200624-.1260613-.3615548-.3455987-.4559866-.8014711-.3301476-1.5556752-.7704827-2.2773102-1.2421227-1.0367642-.6605036-2.0105057-1.399475-2.8592438-2.2957986-.3918079-.4088217-.7373906-.833297-1.098729-1.2578764-.0630387-.0629205-.1260613-.1258409-.2037818-.2044129-.1260613.1572481-.2363509.2829828-.3298431.4088238-.5976893.7704827-1.1785651,1.5567231-1.6186979,2.4371848-.2510488.4874999-.5020975.9748956-.7058793,1.4938026-.2521066.6132346-.4401167,1.2579826-.6596541,1.8868707-.141817.4088217-.2668204.8176455-.4086214,1.2264692-.1102896.3302518-.3613384.5346627-.7069371.6289923-.3140714.0786781-.5493645,0-.7542041-.235818-.2352931-.2673333-.3445249-.5660738-.2510488-.9119771.2048396-.7233179.3928657-1.4466378.6281588-2.1542.2983157-.9277328.6754258-1.8082987,1.1470538-2.6574596.3771101-.6760489.8004293-1.3364483,1.240546-1.9811963.3613544-.5345585.7857154-1.037816,1.1617677-1.5409674-.2983157-.4559866-.5966315-.9277308-.9264746-1.4151265-.1407591.1257367-.2510488.2201685-.3613384.3144961-.5808918.5031514-1.1775233.9905471-1.7268878,1.5252097-.566178.5503162-1.0998029,1.1321436-1.6019004,1.7296226-.471628.5818275-.8802494,1.2108198-1.3193243,1.8082987-.1890679.2515757-.3613384.4873937-.6911815.5818275-.2352931.0628143-.424361.0314071-.6281428-.0944338-.3613544-.235818-.5346667-.7232137-.3928657-1.1321416.1407591-.4402309.4243771-.8018918.6911815-1.1477951.4548305-.597479.9264746-1.1793064,1.4128164-1.7453783.6439145-.7704827,1.3823469-1.4466378,2.1523067-2.0756301.5493805-.4402309,1.098745-.8490546,1.71219-1.3207969-.047267-.3459033-.1102896-.754727-.1733123-1.1793085-.0630387.0157577-.1260613.0315133-.1880261.0471648-1.3193403.6132346-2.5756419,1.3051474-3.8014741,2.0756301-.0777365.0471648-.1565148.0943276-.2352931.1414924-.5020975.2673313-.9579859.0157557-1.1617677-.2829848-.2363509-.3460075-.1575726-.9277308.1880261-1.1950621.3298271-.2515757.6754098-.5031514,1.0210085-.7233199.8634359-.5346627,1.7899105-.9591379,2.7331985-1.3523102.3602805-.1572481.7531463-.2672272,1.1302403-.3930681.1575726-.0471628.2352931-.1258389.2510488-.2829828.0315113-.2988447.0630387-.5818275.1103057-.9120793-.5808918.1100833-1.1313142.2201685-1.6806787.3302518-.2983157.0629205-.5808758.1257347-.8792076.1886552-.4873837.0943276-.8949472-.1414904-1.0210085-.5660718-.1260453-.4088238.09455-.990545.5336249-1.1321416.5031393-.1728996,1.0210085-.2987395,1.5399035-.3616599.7058953-.0785719,1.4285721-.1257357,2.1512649-.1886552.1565148,0,.2510488-.0785719.2983157-.23582.2668204-.7390756.7069371-1.3523102,1.2090346-1.9497891.3928657-.4717442.8172268-.9119751,1.2878129-1.3051474.141817-.1257357.189084-.2829838.2048396-.4559876.0315113-.5503152.1407591-1.0849788.2983157-1.6195373.1722704-.6132777.4233192-1.1950631.8319406-1.7139601.4086054-.5031729.9264585-.8019229,1.570373-.8805469.2048396-.0314492.3140714-.1100732.3928657-.29876.2510488-.5503362.6596541-1.0063343,1.0525199-1.4466178.8791916-1.0063343,1.9002001-1.8554415,3.0157426-2.5787501,1.2247903-.7861975,2.5441306-1.3679937,3.9107219-1.8554411,1.2720573-.4402732,2.5756259-.7547479,3.9107219-.9748887,1.1932629-.2044128,2.4022976-.2987574,3.5955766-.3144811.9737415,0,1.9474831.0314485,2.9212246.1886891.7384485.1100682,1.4768809.2201365,2.2153293.3616575,1.1775233.2358613,2.3088215.6289601,3.4233221,1.0377836,1.8687048.6918594,3.5808788,1.6510294,5.1985348,2.8146115.8014711.5660713,1.523106,1.2264813,2.2300432,1.9026153.4873837.4717227.9579859.9591705,1.4296139,1.4466178.0630226.0628889.1565148.1257878.2510488.1415124.8172268.1415124,1.5703891.440273,2.2615545.8962715,1.2247903.8176575,2.1050397,1.9025732,2.5913976,3.3178039.5031393,1.4938026.3928497,2.9718495-.2510488,4.4027316-.2668204.6132346-.6281588,1.1793064-1.0367802,1.7138649-.0630226.0944338-.047267.1572481-.0315113.2516819.1103057.6603974.2352931,1.3207969.3298431,1.9811963.1575566,1.116388.2510488,2.232774.3140714,3.3649156.1102896,2.0912816.1102896,4.1983208.0787783,6.2897065-.0157557,1.3837193-.0630226,2.751681-.1102896,4.1353983-.0630226,1.7767874-.1565148,3.553679-.1880261,5.3304624-.0630226,2.3428572-.0787783,4.670063.047267,7.0129202.0630226,1.1007365.1565148,2.1856092.2983157,3.2863457.1092478.9119731.2825601,1.8397059.5336249,2.7360275.1102896.4088258.2352931.8176475.3455827,1.2421247.0157557.0629185.0157557.1415966.0315113.2044109h-7.900206v-.1099811c.5504223-1.1007325.9422302-2.2486318,1.2720573-3.4121826.3298271-1.1478993.566178-2.3272058.7857154-3.5065122.2195374-1.2107136.377094-2.4214312.4873837-3.6479004.1880261-2.0756281.3445409-4.1669116.3918079-6.2425437.0315113-1.6509425.0315113-3.3019931,0-4.9372881-.0315113-1.163655-.1092318-2.3272058-.2037818-3.5065122-.094534-1.1635508-.2983157-2.3114501-.5178532-3.4592432-.2205793-1.1164922-.5346667-2.1857153-.9737415-3.2391809-.424361-1.037816-.9737415-2.0127116-1.6964183-2.8775219-.3613544-.4402309-.7384485-.8648103-1.1313142-1.2736341-.9894972-.9906512-2.1354932-1.7768906-3.3760391-2.4057777-.9275324-.4717432-1.9012579-.880567-2.9212246-1.1007345-.3455827-.0785719-.6754258-.1414924-1.0210085-.2044119-.0315113,0-.0787783-.0314081-.094534-.0314081.094534-.4245794.2195374-.8176465.2983157-1.2264703.2510488-1.2893907.047267-2.515861-.7226928-3.6008408-.6123871-.8648213-1.4285721-1.4623419-2.4810919-1.635304-1.193279-.2044119-2.2300432.1572371-3.0472699,1.0692332-.0934761.1100732-.1880261.2201465-.2825601.3459343-.0630226.0943486-.1250035.2201365-.1880261.3302107.3455987-.1886983.6439145-.3931092.9737415-.5346226,1.8371935-.7704827,4.0514649.3930991,4.3035716,2.5629937.0934921.8176475-.141801,1.5567231-.7384485,2.1227949-.6754098.6289913-1.7909683.9748946-2.7174268.5031514-.0157557,0-.047283,0-.1092478-.0314081.1722704.2200634.3140714.4244752.4548305.6132356.7069371.9433822,1.3035686,1.9654416,1.7279457,3.0661761.0630226.1414924.1249874.2987405.1565148.4559866.047267.1886572.1733123.2829848.3455827.3302538,1.240546.3930661,2.4191111.9276246,3.5493674,1.5723725.4558884.2515757.8802494.5503162,1.3035686.8490546.1575726.1100853.2983157.2673333.4243771.4088238.2510488.3302518.2510488.6919128.0157557.9906512-.2352931.3302518-.6281588.4559886-1.0052529.3144961-.1880261-.0629205-.3613544-.1572481-.5336088-.2673313-.8802654-.597479-1.8224796-1.1006303-2.7647099-1.6038879-.2983157-.1572461-.6124032-.2829828-.9264746-.4244732-.047267-.0157577-.1102896-.0315133-.1565148-.0315133-.0315113.0315133-.0630226.0471648-.0630226.0471648-.047267.3931723-.094534.7862384-.141801,1.1793064-.0157557.1572481.0315113.2515757.1890679.3302518,1.6953765,1.037814,3.2195404,2.2956924,4.5546203,3.7580879.4548305.5031514.8792076,1.0220584,1.3193243,1.5409654.0934921.1099791.1880261.23582.2510648.3773124.2825601.5660718.1722544.8648103-.2048396,1.2736341-.2352931.2515757-.7373906.2673313-1.0199507.0471628-.1103057-.0943276-.2205953-.2044109-.3140874-.31439-.3928497-.4717442-.7542041-.9434864-1.1628095-1.399475-.7069371-.7704827-1.4758391-1.4780449-2.2930658-2.1384444-.5966475-.4874999-1.240546-.9434884-1.8529491-1.4152327-.094534-.0629185-.2048236-.1100833-.3140714-.1728975-.2983157.3773104-.4873997.8018898-.9422302,1.0692212.2195374.2044129.3928657.3773124.5808918.5345605,1.5388617,1.3207969,2.858186,2.8461128,3.9737285,4.5443262.6281588.9433822,1.193279,1.9182778,1.6019004,2.9718495.047267.1257347.0787783.2672272.0934921.4088238.0630226.4559866-.2037818.7389714-.5178692.8804598-.3928497.1887634-.7384485.1100853-1.0210085-.2200624-.1565148-.1887594-.2825601-.4088217-.3928497-.6289903-.6596701-1.3523102-1.4600834-2.6415957-2.4180693-3.8052527-1.0210085-1.2421207-2.1670205-2.3586129-3.4401196-3.3649156-.1250035-.0943276-.2353091-.1100833-.3760522-.0629205-1.3508516.4874999-2.7331985.6289923-4.1470568.5031514-.7058953-.0628143-1.4128164-.1414904-2.0882422-.3459033-.5966315-.1886552-1.1785651-.4245794-1.759457-.6603994-.9737415-.4088238-1.8686888-.9906512-2.7321407-1.6038859-.518911-.3616589-.8802494-.8648103-1.2720573-1.352206-.1733283-.2201685-.3298271-.4403371-.5031554-.6603994-.0157557-.0315113-.0630226-.047269-.0787783-.0629205-.8476963,1.8554635-2.2457988,2.987501-4.2247932,3.4907565.2205953.2515757.4243771.4873957.6596701.7075642,1.1628095,1.0692212,2.4821338,1.9026243,3.8949502,2.5787814,1.0210085.4873937,2.0735284.8648103,3.1733313,1.1320375.9737255.2359242,1.9632227.4245794,2.9674338.518907,1.4768809.1572481,2.9684756.1572481,4.4611282.0943276,1.0210085-.0471628,2.0252196-.1728996,3.0304564-.2672272.3613544-.0315113.7384485-.0786761,1.0998029-.1100833h.3140714c-.0630226.0943276-.094534.1572481-.141801.2044109-1.098745,1.0849788-2.3708023,1.871115-3.8634549,2.3114501-.8161689.23582-1.6491513.4088238-2.4968476.4717442-.8004132.0785719-1.6018843.1257347-2.4191111.0785719-.9107189-.0314091-1.8056821-.1258409-2.7478963-.3302538.0157557.1258409.0315113.2359242.047267.3302538.2668044,1.2736341.3613384,2.5472661.2352931,3.8366578-.047267.5346667-.0787783,1.0692252-.1722704,1.6038879-.1102896.6761551-.2678623,1.3523102-.4086214,2.0283611-.1733123.8648103-.3613384,1.7139691-.5031393,2.5787794-.2037818,1.3365585-.2983318,2.7045202-.2825761,4.0568304,0,1.116384.09455,2.232772.2668204,3.3335085.1733123,1.1006283.4873837,2.154202.8802494,3.1920161.0630226.1728996.1092318.3459033.1722704.5031514v.1100853h-18.9096627l-.0462252.0156515ZM228.9390724,20.8186983c.094534-.4088238.0630226-.7704847.0630226-1.1478993,0-.2044129-.094534-.2987405-.2825601-.3616609-.7226928-.235818-1.4296139-.4873937-2.1523067-.7233179-1.0829893-.3459033-2.1827762-.7075642-3.3140743-.9119751-.0934921-.0156515-.1880261-.0785719-.2983157-.1100853.1890679-.0943276.377094-.1257347.566178-.1572481.6123871-.1257347,1.240546-.2044109,1.8686888-.1886552.9579859,0,1.9002161.1414924,2.8424303.3302518.0787943,0,.141817,0,.2353091.0156515,0-.2672272-.1722704-.4559866-.2825761-.6446418-1.0525199-1.8868697-2.5441146-3.3492651-4.3497807-4.4970593-1.1785812-.7548322-2.4506385-1.3365545-3.8014741-1.7453783-.9264746-.283088-1.8687048-.5031514-2.8266746-.6132346-1.4758391-.1572801-2.9369803-.0943807-4.3970637.2829828-1.2258482.3302518-2.2615545.9434874-3.1260482,1.8554625-.4548305.4873947-.8792076,1.0063017-1.3035686,1.5252097-.5651362.6919118-.8949632,1.5095583-1.2563016,2.3272058.094534.0629205.1733123.1257357.2510488.1728996.2205793.1415956.4558724.283088.6754098.4403361.047267.0314071.0787943.0943276.141817.1728996-.3771101.047269-.7069371.0786761-1.0525199.1258389-.3771101.0471648-.5336249.1730057-.5966475.518909-.0315113.2201665-.0315113.4402309-.0315113.6761551h1.0525199c.1092478,0,.2352931.0156515.3455827.0628143.0619808.0315133.1407591.1100853.1565148.1887614,0,.0314071-.094534.1100833-.1565148.1414904-.4401167.2673333-.8802494.518909-1.3035686.7862404-.0630226.0471628-.1260453.1728996-.1260453.2515757.047267.3459033.1102896.6761551.1733123,1.0534655.3445409-.1257347.674384-.2200624.9884554-.3301456.3151293-.1100853.6292007-.2515757.9894972-.2673333-.0304695.0785719-.0777365.1414924-.1250035.2044129-.3928657.4088238-.7699598.8018898-1.1628095,1.2107136-.0934921.1100853-.1565148.2201685-.0777365.3460095.2668044.5031514.5493645.9747894,1.0357063,1.2892855.0787943.0471628.189084.0944318.2678623.0944318.2352931,0,.4705862-.0157557.7058793-.0786761.566178-.1414924,1.0682755-.4245794,1.5399196-.7862404.4863418-.3773104.9107189-.8018898,1.2563016-1.3207969.4863418-.7389714.7846736-1.5409674.9737415-2.4057777.094534-.4717442.1250035-.9277308-.0630226-1.3837193-.1260453-.3144961-.3298271-.5345585-.6596701-.6289903-.3140714-.0943276-.6123871-.2200644-.9264746-.3459043-1.3508356-.5660708-1.7751966-2.2642853-1.3665913-3.2548313.3298271-.8176475.8792076-1.3680678,1.8529491-1.4623955-.1565148.1100843-.2510488.2044119-.3760522.2515757-.2993736.1414914-.2836179.4245804-.094534.6761551.3298271.4717442.8004132.59748,1.3350799.5031514.5808758-.0943276,1.0829733-.3773104,1.570373-.6918066.3928657-.2673313.8004293-.518907,1.2247903-.7548312.1733123-.0943286.4086214-.1099791.5966475-.1099791.5504063,0,1.0052368.2672262,1.3665913.6603984.6438985.7075632.8634359,1.5409664.5336088,2.4686982-.2668044.7389704-.8161689,1.2107136-1.4915947,1.5566169-.3613384.1730047-.7226928.3302528-1.0997868.4717432-.2983157.1258409-.5020975.3302538-.5808918.6446438-.047267.2201685-.0630226.4560927-.0157557.6761551.0787943.4717442.2668204.8963236.5031554,1.3051474.8319406,1.4308821,1.9632388,2.5786772,3.4233221,3.3963227,1.7279457.9592441,3.5651231,1.4309883,5.5283619,1.3680678.2983157,0,.5808758-.0471628.9264746-.0629205-.0630387-.0785699-.0934921-.1258389-.1407591-.1572481-.4401327-.3459033-.8802494-.6761551-1.3193243-1.037814-.6596701-.5345585-1.3193403-1.1006303-1.9789944-1.6509465-.094534-.0786761-.189084-.1572481-.2037818-.2988447.0304535,0,.0619648-.0156495.0777204-.0156495.5346667.1728975,1.0525359.3459033,1.5861447.5345585.9579859.3302518,1.8697466.7548312,2.7331985,1.2736341.3613384.2201685.7226768.4560927,1.0997868.6761551q.3140714.1887614.5808758-.0629205c.1407591-.1414904.2825601-.2829828.4086214-.4402309.1092318-.1414904.2510488-.2673313.2510488-.4717442-.2048396-.1100833-.3928657-.235818-.5966475-.3459033-.518911-.2829828-1.0210085-.5818275-1.5399196-.8648103-.5808758-.2987385-1.1775073-.597479-1.7741548-.8648103-.8014711-.3774166-1.61764-.7233199-2.4191111-1.0849788-.047267-.0314091-.0934921-.0786781-.1407591-.1100853,2.5126032,0,4.8371804.7075642,7.0829792,1.7925431v.0629205ZM239.6974804,11.2584038c.0934921.0315123.1407591.0629195.1880261.0786761.2983157.0943276.5966315.1572481.8791916.2673323.1733283.0628143.3298431.0785709.518911.0314071.3771101-.1100843.7542041-.2515757,1.146012-.3144961,1.1470538-.2044119,2.1523067.0471638,2.8897133,1.0064079.6281428.8176465.8014711,1.7296216.4401167,2.7045172-.2352931.6446428-.6754098,1.1793064-1.2090346,1.6037807-.3928497.3144961-.8014711.5975851-1.240546.9277308.4233192.1100853.8319406.1415966,1.240546.1258409.5178532-.0157557,1.0052529-.1730037,1.4285721-.4874999,1.4453856-1.0534665,1.9632388-2.9718485,1.3666073-4.6385507-.3140874-.8648103-.8634519-1.5252097-1.5861447-2.0598734-.5808758-.4245804-1.240546-.676124-1.9632388-.7547481-.5966315-.078624-1.1617516,0-1.7436853.1257979-.7374066.1729627-1.4128164.4874588-1.9779526.9906092-.1260453.1100843-.2520906.2201685-.3928497.3616599l.0157557.0314081ZM228.6880237,11.3684871c.5178532,0,.9422302-.3930671.9579859-.9277308,0-.4874157-.4873997-.9905881-.9737415-.9905881-.4086054,0-.9264746.5346006-.9264746.9749366,0,.5345595.3918079.9277318.9422302.9433822ZM210.3749924,9.2614809c0,.3144851.3298431.6761351.5966475.6604094.3140714,0,.7226928-.3773735.7226928-.6446848,0-.3616489-.3298431-.6918587-.6754258-.6761341-.3928497,0-.6596701.2830359-.6439145.6604094Z"></path><path class="st1" d="M20.4956932,54.5940119c-11.4807461,0-20.4956932-7.4532573-20.4956932-19.953884S9.0149471,14.6234246,20.4956932,14.6234246c11.480672,0,20.495589,7.5160706,20.495589,20.0167033s-9.014917,19.953884-20.495589,19.953884ZM20.4956932,22.343908c-6.4392861,0-11.3079828,4.6543053-11.3079828,12.0603978,0,7.4059863,4.8686967,12.1075646,11.3079828,12.1075646,6.4391809,0,11.3078787-4.7172258,11.3078787-12.1075646,0-7.3903348-4.8686977-12.0603978-11.3078787-12.0603978Z"></path><path class="st1" d="M62.5078778,54.5310934c-4.0835092,0-7.0047258-1.5094541-8.7322468-4.0882375v13.6327744h-8.9678564V26.2748955h8.5123928l-.0628143,3.5379193h.1098729c2.0102934-2.4057777,4.9786768-4.0410707,9.1877104-4.0410707,7.9469521,0,12.9884431,6.226786,12.9884431,14.3560902,0,8.1294124-5.0414911,14.4190147-13.0512574,14.4190147l.0157557-.0157557ZM59.9321437,32.8318271c-3.8007368,0-6.4392851,2.9090332-6.4392851,7.1702745,0,4.2612372,2.6385484,7.1701683,6.4392851,7.1701683,3.8007327,0,6.5020994-2.9089311,6.5020994-7.1701683,0-4.2612412-2.6385484-7.1702745-6.5020994-7.1702745Z"></path><path class="st1" d="M88.0921228,54.5310934c-4.1463275,0-8.5123928-1.2893917-11.6534674-4.2612412l3.3609246-5.3304624c2.245903,1.9026283,5.9366627,3.3650238,8.1825657,3.3650238s3.8007287-.5660738,3.8007287-2.3586169c0-1.7925391-4.0363424-2.6888647-5.0414911-3.034768-4.5859233-1.1793064-8.6222657-2.79895-8.6222657-8.5224785,0-5.3776252,4.711656-8.695378,10.4755273-8.695378,5.7639675,0,9.0150192,2.1226887,10.5855044,3.4120804l-2.905461,5.2675419c-1.5705894-1.2421207-4.711664-2.6887605-6.9418114-2.6887605-2.2302515,0-3.2982145.5660718-3.2982145,2.0127096,0,1.4465356,2.1359259,2.1226907,4.0363424,2.6887605,4.7587226,1.399473,9.7530509,2.8617643,9.7530509,8.978467,0,6.6198541-5.999477,9.1357151-11.700526,9.1357151l-.0314071.0314071Z"></path><path class="st1" d="M137.8781455,53.9178568l-1.5073504-26.3535716h-.1102896l-8.2920219,26.3535716h-7.1617575l-8.3392889-26.3535716h-.1733203l-1.3981106,26.3535716h-8.9045132l2.905461-38.6969532h11.4181743l8.0724764,25.457249h.1102976l7.9464231-25.457249h11.4810928l2.858202,38.6969532h-8.9054749Z"></path><path class="st1" d="M155.2962135,23.0829836c-3.0157586,0-5.1050427-1.8554635-5.1050427-4.6544115,0-2.7988448,2.0735284-4.6543073,5.1050427-4.6543073,3.0304724,0,5.1040008,1.9026263,5.1040008,4.6543073,0,2.7517852-2.0735284,4.6544115-5.1040008,4.6544115ZM150.8193297,53.9178568v-27.6429613h8.9684815v27.6429613h-8.9684815Z"></path><path class="st1" d="M164.9233233,53.9178568V15.2209035h8.9674397v38.6969532h-8.9674397Z"></path><path class="st1" d="M179.1050374,53.9178568V15.2209035h8.9684975v38.6969532h-8.9684975Z"></path></svg>